<svg xmlns="http://www.w3.org/2000/svg" viewBox="0 0 1254 1254" width="1254" height="1254">
  <defs>
    <linearGradient id="controllerGradient" x1="0" y1="0" x2="1" y2="0">
      <stop offset="0%" stop-color="#0334F0"/>
      <stop offset="50%" stop-color="#0090FA"/>
      <stop offset="100%" stop-color="#06A3FC"/>
    </linearGradient>
  </defs>
  <g transform="translate(0.000000,1254.000000) scale(0.100000,-0.100000)">
    <path d="M3150 9551 c-414 -68 -746 -287 -1008 -667 -33 -47 -127 -233 -142
-279 -7 -22 -16 -44 -20 -50 -5 -5 -18 -44 -30 -85 -13 -41 -26 -79 -30 -85
-4 -5 -16 -39 -25 -75 -10 -36 -21 -69 -25 -75 -4 -5 -17 -41 -29 -80 -29 -98
-121 -377 -131 -396 -4 -8 -18 -51 -30 -95 -12 -43 -26 -83 -30 -89 -4 -5 -15
-41 -25 -80 -10 -38 -22 -75 -26 -80 -4 -6 -18 -47 -30 -90 -11 -44 -24 -84
-28 -90 -4 -5 -16 -41 -26 -80 -10 -38 -22 -77 -26 -85 -5 -8 -18 -49 -29 -90
-12 -41 -25 -84 -30 -95 -5 -11 -16 -47 -25 -80 -9 -33 -20 -69 -25 -80 -9
-19 -41 -133 -81 -285 -11 -41 -24 -84 -29 -95 -9 -22 -50 -187 -81 -330 -11
-49 -24 -99 -29 -110 -5 -11 -16 -58 -25 -105 -9 -47 -23 -112 -31 -145 -16
-63 -37 -173 -80 -410 -14 -77 -30 -162 -35 -190 -51 -277 -69 -725 -36 -922
18 -114 36 -193 47 -208 4 -5 15 -34 25 -64 56 -172 210 -399 377 -556 94 -88
105 -97 188 -150 407 -261 916 -286 1327 -65 164 88 320 216 408 335 17 22 37
47 46 55 9 8 56 62 104 120 49 58 98 115 109 126 12 12 37 41 56 65 19 23 42
50 51 58 9 9 58 66 109 126 51 61 100 117 109 125 9 8 45 49 81 90 68 79 102
117 136 153 11 12 60 68 109 125 191 224 282 262 622 262 232 0 236 1 274 68
11 20 33 60 49 87 16 28 30 53 30 58 0 4 -135 7 -299 7 -225 0 -317 -4 -368
-15 -191 -41 -314 -123 -492 -330 -155 -181 -245 -285 -276 -318 -11 -12 -63
-71 -115 -132 -52 -60 -102 -117 -111 -125 -9 -8 -45 -49 -79 -90 -35 -41 -80
-93 -101 -115 -21 -22 -92 -105 -159 -185 -142 -169 -199 -225 -295 -287 -135
-89 -280 -145 -435 -168 -394 -60 -766 83 -1024 395 -211 254 -304 516 -305
862 -1 144 15 368 29 413 5 17 19 104 30 195 12 91 25 170 30 175 4 6 15 64
25 130 9 66 20 126 24 135 5 8 18 69 31 135 13 66 26 125 30 130 5 6 16 50 25
100 9 49 20 94 25 100 4 5 17 56 29 113 11 56 25 110 30 120 5 9 16 51 25 92
9 41 21 84 26 95 5 11 20 61 33 110 41 152 67 239 77 260 5 11 16 47 25 80 9
33 22 76 30 95 8 19 21 63 30 96 8 34 22 74 30 90 8 16 15 34 15 41 0 13 77
255 95 298 7 17 18 53 25 80 7 28 16 55 20 60 5 6 18 46 30 90 12 44 25 85 30
90 4 6 13 33 20 60 7 28 18 64 25 80 11 27 93 271 145 430 38 116 72 210 81
221 5 6 15 28 23 50 7 22 24 56 37 76 13 20 35 56 49 79 26 45 122 162 174
215 192 190 432 311 698 350 153 22 801 16 896 -10 112 -29 201 -77 275 -148
65 -61 87 -90 137 -182 12 -21 30 -48 41 -59 10 -12 19 -24 19 -27 0 -14 131
-111 188 -140 125 -62 74 -60 1522 -60 1378 0 1391 0 1486 42 56 24 139 80
187 127 45 42 64 69 140 187 79 125 215 218 383 260 103 27 696 33 857 9 274
-40 490 -148 687 -345 125 -124 182 -202 252 -345 22 -44 44 -88 50 -99 12
-23 52 -140 79 -231 11 -38 24 -74 29 -80 4 -5 13 -30 20 -55 6 -25 18 -58 25
-75 7 -16 23 -61 35 -100 11 -38 25 -77 30 -87 5 -9 16 -45 25 -80 9 -34 20
-67 25 -73 5 -5 16 -39 25 -75 9 -36 23 -78 30 -95 16 -36 95 -286 95 -300 0
-5 7 -23 15 -39 8 -16 22 -56 31 -90 9 -33 20 -65 24 -71 5 -5 18 -48 30 -95
12 -47 25 -89 29 -95 5 -5 16 -41 26 -80 11 -38 22 -72 25 -75 4 -3 15 -39 25
-80 10 -41 21 -79 25 -85 4 -5 18 -53 30 -105 13 -52 27 -102 31 -110 9 -16
35 -111 75 -275 14 -55 28 -107 33 -115 4 -8 16 -55 25 -105 10 -49 22 -99 27
-110 5 -11 18 -72 29 -135 12 -63 25 -124 30 -135 5 -11 18 -69 29 -130 10
-60 24 -130 30 -155 6 -25 20 -110 31 -190 11 -80 25 -181 32 -225 14 -103 15
-516 0 -575 -37 -156 -63 -250 -76 -276 -8 -16 -33 -67 -56 -114 -66 -132
-126 -216 -235 -326 -102 -104 -201 -176 -303 -221 -31 -13 -66 -29 -77 -34
-74 -34 -269 -68 -387 -69 -160 0 -321 37 -474 110 -138 66 -245 150 -356 278
-51 59 -98 112 -104 117 -5 6 -41 46 -80 90 -38 44 -74 84 -80 90 -6 5 -44 48
-84 95 -40 47 -76 87 -79 90 -3 3 -24 25 -45 50 -22 25 -74 83 -116 130 -42
47 -94 105 -116 130 -21 25 -44 50 -51 55 -6 6 -30 33 -53 60 -254 300 -361
392 -515 444 -112 37 -161 41 -470 41 -264 0 -305 -2 -305 -15 0 -8 4 -15 8
-15 5 0 19 -22 32 -50 13 -28 27 -50 30 -50 4 0 13 -13 20 -30 22 -54 25 -55
289 -61 241 -5 248 -6 316 -33 88 -36 177 -99 235 -166 25 -29 54 -62 65 -74
83 -92 193 -214 210 -231 11 -12 49 -55 84 -96 35 -41 72 -81 80 -89 14 -13
134 -149 319 -363 30 -34 73 -82 96 -107 23 -25 85 -95 138 -156 99 -113 157
-167 250 -233 387 -273 911 -315 1333 -106 198 98 339 219 502 431 75 98 189
315 209 399 4 17 10 35 14 40 9 11 26 90 48 220 18 110 27 480 13 550 -5 28
-15 106 -21 175 -7 69 -18 161 -25 205 -43 251 -61 351 -67 360 -3 6 -16 64
-27 129 -12 66 -25 124 -29 130 -3 6 -16 56 -28 111 -12 55 -36 154 -52 220
-17 66 -40 158 -51 205 -11 47 -25 92 -29 100 -5 8 -17 49 -26 90 -9 41 -21
83 -26 92 -5 9 -19 54 -30 100 -12 46 -25 88 -29 93 -5 6 -11 24 -15 40 -8 36
-84 282 -96 310 -5 11 -17 49 -26 85 -9 36 -20 70 -24 75 -5 6 -18 46 -30 90
-12 44 -25 85 -30 90 -4 6 -15 39 -25 75 -9 36 -21 70 -25 75 -5 6 -16 39 -25
75 -9 36 -23 79 -30 95 -7 17 -21 57 -30 90 -9 33 -20 65 -25 70 -4 6 -17 42
-28 80 -27 89 -69 214 -82 240 -5 11 -17 47 -26 80 -9 33 -20 65 -24 70 -4 6
-18 44 -30 85 -12 41 -26 80 -30 85 -4 6 -15 33 -24 62 -18 53 -122 264 -136
273 -4 3 -13 16 -19 29 -52 97 -253 307 -387 403 -112 80 -279 163 -408 202
-179 55 -288 66 -663 66 -414 0 -507 -13 -677 -97 -150 -73 -257 -171 -366
-333 -35 -52 -77 -108 -94 -123 -41 -38 -121 -75 -188 -87 -36 -7 -506 -9
-1354 -8 l-1299 3 -53 22 c-100 41 -147 86 -222 212 -121 203 -352 355 -603
396 -138 22 -771 19 -917 -4z" fill="url(#controllerGradient)"/>
    <path d="M9210 8322 c-107 -31 -190 -146 -190 -262 0 -51 26 -132 51 -161 11
-13 24 -28 27 -34 14 -21 72 -54 121 -71 67 -22 135 -14 203 23 219 119 182
445 -58 508 -70 18 -84 18 -154 -3z" fill="#0498FD"/>
    <path d="M8605 7736 c-136 -63 -197 -233 -130 -364 32 -63 64 -95 130 -130 71
-37 169 -37 240 0 92 48 145 127 153 229 4 58 1 73 -25 130 -51 109 -128 158
-248 159 -53 0 -83 -6 -120 -24z" fill="#0486FC"/>
    <path d="M9755 7739 c-73 -39 -104 -69 -136 -134 -29 -59 -31 -71 -27 -132 8
-104 60 -183 153 -231 41 -21 64 -26 125 -26 64 -1 82 3 120 26 67 40 98 74
126 135 31 70 32 152 4 211 -11 22 -20 45 -20 49 0 16 -75 81 -117 102 -59 29
-172 29 -228 0z" fill="#048CFC"/>
    <path d="M9215 7187 c-148 -49 -226 -200 -181 -349 40 -133 193 -219 325 -184
149 40 230 169 201 323 -29 154 -200 258 -345 210z" fill="#047EFC"/>
    <path d="M3340 5713 c-25 -48 -48 -92 -52 -97 -5 -6 -23 -41 -42 -78 l-34 -67
107 -3 c58 -2 139 -2 178 0 l73 3 -48 92 c-26 51 -50 94 -54 97 -3 3 -14 25
-24 50 -10 25 -21 47 -24 50 -4 3 -9 13 -13 23 -3 9 -10 17 -14 17 -4 0 -28
-39 -53 -87z" fill="#0469F8"/>
    <path d="M6960 5792 c0 -6 -6 -17 -13 -24 -7 -7 -24 -35 -38 -63 -14 -27 -47
-90 -73 -140 l-47 -90 172 -3 c94 -1 173 -1 175 1 2 2 -32 75 -76 163 -73 143
-100 186 -100 156z" fill="#046FFA"/>
  </g>
  <g transform="translate(0.000000,1254.000000) scale(0.100000,-0.100000)" fill="#010A1C">
    <path d="M3092 8313 c-60 -29 -63 -48 -63 -311 1 -131 -3 -244 -9 -252 -7 -12
-51 -15 -265 -16 -238 -1 -258 -2 -283 -21 -52 -38 -62 -74 -62 -228 0 -121 3
-144 20 -172 36 -60 52 -63 329 -63 145 0 252 -4 256 -9 5 -9 12 -196 14 -415
1 -98 1 -98 35 -132 l34 -34 162 0 162 0 39 39 39 39 0 244 c0 176 3 247 12
256 9 9 78 12 250 12 260 0 287 5 326 55 20 26 22 39 22 186 l0 159 -33 36
c-43 47 -64 50 -337 48 -132 -1 -220 2 -227 8 -10 8 -13 70 -13 250 0 245 -3
264 -41 301 -32 31 -67 37 -202 37 -101 0 -140 -4 -165 -17z"/>
    <path d="M5795 8195 c-31 -30 -34 -92 -6 -126 l19 -24 456 -3 456 -3 25 25
c35 35 35 97 0 131 l-24 25 -451 0 -451 0 -24 -25z"/>
    <path d="M3273 6368 c-11 -18 -48 -89 -83 -158 -35 -69 -80 -156 -100 -195
-127 -238 -278 -543 -273 -549 3 -3 48 -6 99 -6 l92 0 116 228 c220 432 241
472 251 469 8 -3 154 -283 327 -627 l33 -65 103 -3 102 -3 -202 398 c-111 219
-218 430 -237 468 l-36 70 -86 3 -87 3 -19 -33z"/>
    <path d="M4150 6310 l0 -90 354 0 c431 0 406 8 406 -130 0 -72 -4 -92 -19
-111 l-19 -24 -361 -3 -361 -3 2 -242 3 -242 85 0 85 0 5 155 5 155 135 3 135
2 107 -127 c59 -71 120 -143 137 -160 l30 -33 110 0 c61 0 111 3 111 8 0 4
-57 71 -125 150 -69 78 -125 147 -125 152 0 6 12 10 28 10 50 0 103 21 143 57
58 52 72 111 67 277 -3 127 -4 135 -33 182 -23 37 -44 56 -84 77 l-55 27 -383
0 -383 0 0 -90z"/>
    <path d="M5530 6383 c-103 -36 -175 -112 -206 -219 -13 -45 -15 -93 -12 -253
l3 -197 34 -68 c40 -78 93 -127 173 -159 50 -20 73 -22 376 -25 l322 -3 0 90
0 91 -282 0 c-356 0 -392 9 -437 105 -18 39 -21 63 -21 184 0 152 13 203 61
248 44 40 69 43 380 43 l299 0 0 90 0 90 -322 0 c-267 -1 -331 -4 -368 -17z"/>
    <path d="M6837 6338 c-19 -35 -54 -103 -79 -153 -24 -49 -115 -229 -201 -398
-87 -170 -155 -313 -152 -318 4 -5 48 -9 99 -9 l93 0 21 48 c41 93 328 646
338 649 5 1 88 -154 184 -345 l175 -347 103 -3 102 -3 -222 438 c-122 241
-229 452 -238 470 l-15 32 -87 1 -86 0 -35 -62z"/>
    <path d="M7690 6310 l0 -90 315 0 c245 0 323 -3 348 -14 83 -35 112 -119 105
-305 -5 -138 -15 -170 -68 -215 -49 -41 -92 -47 -317 -44 l-208 3 -3 153 -3
152 -84 0 -85 0 0 -246 0 -246 338 4 c367 4 380 6 464 65 52 35 91 89 119 162
25 68 37 285 21 397 -20 141 -100 249 -215 293 -55 20 -75 21 -392 21 l-335 0
0 -90z"/>
    <path d="M8852 6313 l3 -88 448 -3 447 -2 0 90 0 90 -450 0 -451 0 3 -87z"/>
    <path d="M8851 5793 c0 -260 6 -289 59 -315 32 -16 74 -18 438 -18 l402 0 0
90 0 90 -362 2 -363 3 0 100 0 100 363 3 362 2 0 85 0 85 -450 0 -450 0 1
-227z"/>
  </g>
</svg>
